<?xml version="1.0" encoding="utf-8"?>
<!-- Generator: Adobe Illustrator 16.0.0, SVG Export Plug-In . SVG Version: 6.00 Build 0)  -->
<!DOCTYPE svg PUBLIC "-//W3C//DTD SVG 1.1//EN" "http://www.w3.org/Graphics/SVG/1.1/DTD/svg11.dtd">
<svg version="1.1" id="Layer_1" xmlns="http://www.w3.org/2000/svg" xmlns:xlink="http://www.w3.org/1999/xlink" x="0px" y="0px"
	 width="1024px" height="1024px" viewBox="0 0 1024 1024" enable-background="new 0 0 1024 1024" xml:space="preserve">
<rect fill="none" width="1024" height="1024"/>
<g>
	<path fill-rule="evenodd" clip-rule="evenodd" d="M0,319.751c0.139-183.988,156.395-330.6,340.094-319.12
		c170.312,10.642,301.642,151.013,300.74,321.365c-0.324,66.921-19.967,127.715-58.771,182.101
		c-6.387,8.966-5.108,13.656,2.206,20.472c14.754,13.767,28.582,28.511,43.063,42.58c5.41,5.252,5.41,8.079-1.904,11.479
		c-20.691,9.63-36.074,25.035-45.656,45.72c-3.545,7.626-6.5,6.728-11.512,1.624c-14.378-14.692-29.333-28.811-43.45-43.742
		c-6.326-6.704-10.81-7.491-18.8-1.826c-117.29,82.91-271.279,78.819-384.084-9.767C45.218,510.4-0.074,417.191,0,319.751z
		 M85.25,319.339c-0.226,130.129,104.576,235.255,234.867,235.578c129.727,0.313,235.456-104.324,235.918-233.477
		c0.477-130.955-104.162-236.336-234.904-236.574C190.689,84.623,85.475,189.209,85.25,319.339z"/>
	<path fill-rule="evenodd" clip-rule="evenodd" d="M664.281,596.659c22.221,0.651,38.166,6.804,50.979,19.534
		c51.43,51.071,237.812,238.486,288.716,290.084c27.017,27.398,26.403,69.641-0.076,96.477c-26.68,27.061-68.941,28.861-96.497,2
		c-52.657-51.346-239.64-239.725-290.944-292.408c-20.805-21.372-24.324-48.045-11.948-75.244
		C616.747,610.242,639.205,597.735,664.281,596.659z"/>
</g>
<path d="M443.53,281H363v-79.53c0-15.171-12.299-27.47-27.47-27.47H312.47c-15.171,0-27.47,12.299-27.47,27.47V281h-79.53
	c-15.171,0-27.47,12.299-27.47,27.47v23.061c0,15.171,12.299,27.47,27.47,27.47H285v80.53c0,15.171,12.299,27.47,27.47,27.47h23.061
	c15.171,0,27.47-12.299,27.47-27.47V359h80.53c15.171,0,27.47-12.299,27.47-27.47V308.47C471,293.299,458.701,281,443.53,281z"/>
</svg>
